# xmcd
#
# Track frame offsets:
#      150
#      24600
#      47617
#      61610
#      77742
#      86470
#      103537
#      129550
#      151242
#      167157
#      182687
# 
# Disc length: 2688 seconds
#
# Revision: 3
# Processed by: cddbd v1.4PL0 Copyright (c) Steve Scherf et al.
#
# Submitted via: FreeRIP 1.20
#
DISCID=7c0a7e0b
DTITLE=Varies - Cats
DYEAR=1900
DGENRE=Broadway
TTITLE0=Prologue: Jellicle/Songs of Jellicile
TTITLE1=The Old Gumbie Cat
TTITLE2=The Rum Tum Tugger
TTITLE3=Mungojerrie and Rumpleteazer
TTITLE4=Old Deuteronomy
TTITLE5=Grizabella: The Glamour Cat
TTITLE6=Gus: The Theatre Cat
TTITLE7=Skimbleshanks: The Railway Cat
TTITLE8=Macavity: The Mystery Cat
TTITLE9=Mr. Mistoffeless
TTITLE10=Memory
EXTD=APT 056
EXTT0=
EXTT1=
EXTT2=
EXTT3=
EXTT4=
EXTT5=
EXTT6=
EXTT7=
EXTT8=
EXTT9=
EXTT10=
PLAYORDER=
